<?xml version="1.0" encoding="UTF-8"?>
<svg version="1.1" xmlns="http://www.w3.org/2000/svg" width="375" height="317">
<path d="M0 0 C1.50658676 -0.00786278 1.50658676 -0.00786278 3.04360962 -0.0158844 C5.15634238 -0.0222727 7.26911085 -0.02100929 9.38183594 -0.01245117 C12.58594155 -0.00394771 15.78825769 -0.03273835 18.9921875 -0.06445312 C21.05729114 -0.06606578 23.12239789 -0.06548637 25.1875 -0.0625 C26.60209 -0.07935097 26.60209 -0.07935097 28.04525757 -0.09654236 C36.31919909 -0.01135101 45.64954522 1.8627104 51.83984375 7.8046875 C57.68937336 14.6758251 60.95025889 21.91968458 63.94921875 30.33203125 C64.26701294 31.20947998 64.58480713 32.08692871 64.91223145 32.9909668 C65.68861161 35.13678517 66.4599103 37.2842848 67.2265625 39.43359375 C68.13952087 39.44239311 68.13952087 39.44239311 69.07092285 39.45137024 C75.43071971 39.51552114 81.79002067 39.59999615 88.14941406 39.69604492 C90.51979008 39.72920948 92.89024345 39.75726753 95.26074219 39.7800293 C98.67676626 39.81373063 102.0920868 39.86605584 105.5078125 39.921875 C106.56021118 39.92826492 107.61260986 39.93465485 108.69689941 39.9412384 C117.71129478 40.11959349 124.77061538 41.82750832 131.2265625 48.43359375 C135.02020696 54.98681773 134.68381692 61.4805009 134.703125 68.90625 C134.72695266 70.9160211 134.75078357 72.92579216 134.774786 74.93556118 C134.80467952 77.74791287 134.82114969 80.56028545 134.83782959 83.3727417 C134.87355567 88.89662933 134.93488059 94.42033558 134.99422455 99.94401169 C135.00845951 101.29080938 135.02205798 102.63761396 135.03501129 103.98442459 C135.150361 115.81851414 135.56827779 127.61808691 136.2265625 139.43359375 C137.13680176 139.58119141 138.04704102 139.72878906 138.98486328 139.88085938 C155.90732283 142.76626745 170.53970275 150.95206624 180.82421875 164.828125 C185.71514047 171.83945029 189.14317663 179.11245137 191.2265625 187.43359375 C191.41605469 188.17609375 191.60554688 188.91859375 191.80078125 189.68359375 C194.65691042 208.13051978 190.88851372 224.57661683 180.484375 240.01953125 C170.85945558 252.99919437 156.19781704 261.91130711 140.2265625 264.43359375 C122.44491772 266.01931924 105.20624901 263.67599168 91.08984375 251.8828125 C83.25710337 245.05104215 77.02901138 237.66907237 72.2265625 228.43359375 C72.2265625 227.77359375 72.2265625 227.11359375 72.2265625 226.43359375 C71.37841728 226.43728092 70.53027206 226.44096809 69.65642548 226.444767 C49.00763017 226.53315102 28.35886752 226.59931945 7.70992279 226.64084244 C-2.27581074 226.661457 -12.2614179 226.68955651 -22.24707031 226.73535156 C-30.95180074 226.77525313 -39.65643964 226.8010346 -48.36125898 226.80994773 C-52.96931255 226.81515685 -57.5771043 226.82737715 -62.18507385 226.85651398 C-66.52545856 226.88373555 -70.86547446 226.89202517 -75.20593643 226.88602448 C-76.79580314 226.8871217 -78.38568262 226.8950355 -79.97547531 226.91041565 C-97.00425868 227.06702745 -97.00425868 227.06702745 -103.83203125 220.43359375 C-104.28707031 219.77359375 -104.74210937 219.11359375 -105.2109375 218.43359375 C-105.68402344 217.77359375 -106.15710938 217.11359375 -106.64453125 216.43359375 C-108.89717733 212.44274671 -108.90189005 208.67896056 -108.91387939 204.15324402 C-108.91958954 202.86208176 -108.92529968 201.57091949 -108.93118286 200.2406311 C-108.93242814 198.81170664 -108.93355325 197.38278207 -108.93457031 195.95385742 C-108.93920019 194.44740172 -108.94422508 192.94094719 -108.94961548 191.43449402 C-108.96272477 187.3434827 -108.96918151 183.25248777 -108.97362614 179.16145873 C-108.97655912 176.60451204 -108.98066434 174.04756982 -108.98513031 171.49062538 C-108.9988011 163.4874585 -109.00846992 155.48430185 -109.0123322 147.4811241 C-109.01681266 138.24823701 -109.03436174 129.01549797 -109.0633328 119.78265589 C-109.08495996 112.64196984 -109.09503703 105.50132542 -109.09637332 98.36060697 C-109.09742057 94.09755179 -109.10331131 89.83463587 -109.12119293 85.57161522 C-109.13769165 81.56033497 -109.13982046 77.54929841 -109.13105392 73.53799629 C-109.13028452 72.06866172 -109.13461352 70.59931394 -109.14451218 69.13001251 C-109.243911 53.45203675 -109.243911 53.45203675 -103.3984375 46.68359375 C-97.9759428 42.03574115 -93.71212214 40.3025574 -86.63769531 40.32006836 C-85.61693909 40.32014389 -84.59618286 40.32021942 -83.54449463 40.32029724 C-82.44957703 40.32545853 -81.35465942 40.33061981 -80.2265625 40.3359375 C-78.53705475 40.33805992 -78.53705475 40.33805992 -76.81341553 40.34022522 C-73.21672915 40.34582176 -69.62010506 40.35837365 -66.0234375 40.37109375 C-63.58463632 40.3761092 -61.14583416 40.38067203 -58.70703125 40.38476562 C-52.72914542 40.39579005 -46.75129591 40.41252477 -40.7734375 40.43359375 C-40.5705159 39.67918503 -40.3675943 38.92477631 -40.15852356 38.14750671 C-39.75678169 36.6623632 -39.75678169 36.6623632 -39.34692383 35.1472168 C-39.08212723 34.16593307 -38.81733063 33.18464935 -38.54450989 32.17362976 C-35.30802048 20.67263756 -29.85756709 10.25109332 -19.7734375 3.43359375 C-13.29804992 0.43363113 -7.0454629 -0.02183798 0 0 Z M-18.171875 22.1171875 C-22.14290492 27.86065272 -24.57121204 33.82691736 -26.7734375 40.43359375 C-0.7034375 40.43359375 25.3665625 40.43359375 52.2265625 40.43359375 C48.50678908 29.2742735 45.56584075 22.04891585 36.2265625 15.43359375 C31.55718535 13.49981558 27.25902829 13.12639825 22.265625 13.1328125 C21.14152725 13.12638481 21.14152725 13.12638481 19.99472046 13.11982727 C18.41641241 13.11411003 16.83807802 13.1135644 15.25976562 13.11791992 C12.86542026 13.12107549 10.47231759 13.0976049 8.078125 13.07226562 C6.53645987 13.06999166 4.99479146 13.06928959 3.453125 13.0703125 C2.74765533 13.06110275 2.04218567 13.05189301 1.31533813 13.04240417 C-6.90652747 13.11763272 -12.96909607 15.66716704 -18.171875 22.1171875 Z M-94.7734375 60.43359375 C-97.38494938 65.65661751 -96.08713923 74.00995039 -96.12353516 79.8269043 C-96.14009194 81.7677815 -96.16737838 83.70859781 -96.20556641 85.64916992 C-96.2603709 88.4487264 -96.28221414 91.24685413 -96.296875 94.046875 C-96.31954437 94.91161942 -96.34221375 95.77636383 -96.36557007 96.66731262 C-96.35159333 100.65930173 -96.17632465 102.82787706 -93.92822266 106.20776367 C-86.23843838 111.63322128 -77.33374488 114.42773978 -68.40234375 117.1328125 C-67.35876205 117.45393509 -66.31518036 117.77505768 -65.23997498 118.10591125 C-63.05034757 118.7774854 -60.85957843 119.44534746 -58.66772461 120.10961914 C-55.34458323 121.11846905 -52.02669382 122.14336824 -48.70898438 123.16992188 C-46.56540044 123.82518874 -44.42152932 124.47951702 -42.27734375 125.1328125 C-41.30197159 125.43491135 -40.32659943 125.73701019 -39.32167053 126.04826355 C-32.53753042 128.08810205 -25.78250427 129.41893661 -18.7734375 130.43359375 C-18.72783691 129.71719727 -18.68223633 129.00080078 -18.63525391 128.26269531 C-18.00102629 119.1063672 -18.00102629 119.1063672 -14.7734375 115.43359375 C-9.53060509 112.0799598 -5.04799973 111.98008837 0.97265625 112 C1.90199478 111.99475815 2.83133331 111.9895163 3.78883362 111.9841156 C5.74796554 111.97771217 7.70713599 111.97901059 9.66625977 111.98754883 C12.65125505 111.99605724 15.63433416 111.96727659 18.61914062 111.93554688 C20.52864526 111.93393453 22.43815327 111.93451303 24.34765625 111.9375 C25.23327744 111.92626602 26.11889862 111.91503204 27.03135681 111.90345764 C32.92378034 111.96918499 36.38530792 113.02678497 41.2265625 116.43359375 C42.56640625 118.328125 42.56640625 118.328125 43.1640625 120.24609375 C43.37933594 120.87128906 43.59460938 121.49648437 43.81640625 122.140625 C44.37213576 125.24741762 44.25061825 128.2836651 44.2265625 131.43359375 C55.55763764 128.86425104 66.76784059 126.02752613 77.9140625 122.74609375 C78.64281586 122.53182739 79.37156921 122.31756104 80.12240601 122.09680176 C89.56102377 119.30351154 98.88836214 116.33016085 108.0390625 112.68359375 C108.91457764 112.34368408 109.79009277 112.00377441 110.69213867 111.65356445 C111.49369385 111.31800537 112.29524902 110.98244629 113.12109375 110.63671875 C113.80018799 110.35473633 114.47928223 110.07275391 115.17895508 109.78222656 C118.76842726 107.41806246 121.69795163 104.7302614 122.67805481 100.47198486 C122.85305532 98.21411788 122.86781701 96.01020322 122.8203125 93.74609375 C122.82035278 92.92536377 122.82039307 92.10463379 122.82043457 91.2590332 C122.81509457 89.53100896 122.7975769 87.80298408 122.76855469 86.07519531 C122.72668494 83.44129627 122.72749212 80.80995729 122.734375 78.17578125 C122.72388134 76.49086778 122.71094228 74.8059674 122.6953125 73.12109375 C122.69511108 72.33968018 122.69490967 71.5582666 122.69470215 70.75317383 C122.59191866 65.96684597 121.9568695 62.5306038 119.2265625 58.43359375 C115.52126287 55.77140712 111.36991757 56.14886005 106.99659729 56.16616821 C106.15957919 56.1616371 105.32256108 56.15710599 104.46017879 56.15243757 C101.65121241 56.13976187 98.84243912 56.14141597 96.03344727 56.14306641 C94.02128855 56.1370832 92.00913214 56.13027813 89.99697876 56.12271118 C84.52803381 56.10502437 79.05915142 56.10035471 73.59018064 56.09907961 C69.02738181 56.09718186 64.4645976 56.08982588 59.90180439 56.08273542 C49.13919996 56.0664442 38.37662901 56.06156719 27.61401367 56.06298828 C16.50427646 56.06419039 5.3947333 56.04307629 -5.71495479 56.01150095 C-15.2479527 55.98537029 -24.7808871 55.97461961 -34.31392056 55.9758991 C-40.00997776 55.97640961 -45.70586249 55.97067692 -51.40188408 55.949543 C-56.75762369 55.93021433 -62.11302534 55.92999935 -67.4687767 55.94457626 C-69.43561737 55.94667204 -71.40247889 55.94191795 -73.36928368 55.92985535 C-76.05208554 55.91446564 -78.73371288 55.92366905 -81.41648865 55.93911743 C-82.19684036 55.92883031 -82.97719208 55.91854318 -83.78119081 55.90794432 C-88.73132885 55.97104067 -91.30951306 56.87814785 -94.7734375 60.43359375 Z M-95.7734375 120.43359375 C-95.88928662 131.82090566 -95.97813039 143.20807739 -96.03249836 154.59585857 C-96.05859238 159.88369753 -96.0939873 165.17113332 -96.15063477 170.45874023 C-96.20496085 175.56159744 -96.2348595 180.66406686 -96.24782372 185.76719093 C-96.25706248 187.71409015 -96.27510384 189.66096813 -96.30208778 191.60770226 C-96.33838625 194.33488196 -96.34338255 197.0604594 -96.34106445 199.7878418 C-96.35904083 200.59273041 -96.37701721 201.39761902 -96.39553833 202.22689819 C-96.35858079 206.24519811 -95.96238299 208.18740742 -93.48796082 211.41145325 C-89.1827121 214.61857906 -85.70474481 214.55813364 -80.40802002 214.55384827 C-79.09832748 214.55522293 -77.78863495 214.5565976 -76.43925476 214.55801392 C-74.98977638 214.55447497 -73.54029824 214.55084016 -72.09082031 214.54711914 C-70.56315615 214.54683704 -69.03549185 214.54699545 -67.50782776 214.54756165 C-63.36149078 214.54784873 -59.21518269 214.5419663 -55.06885242 214.53498769 C-50.73533588 214.52873942 -46.40181869 214.52814918 -42.06829834 214.52696228 C-33.86254554 214.52385332 -25.65680604 214.51564578 -17.4510591 214.50561279 C-8.10894519 214.49443817 1.23316936 214.4889378 10.5752883 214.48391736 C29.79238725 214.47346282 49.0094738 214.45587177 68.2265625 214.43359375 C68.21805267 213.87257462 68.20954285 213.31155548 68.20077515 212.73353577 C68.16660412 210.145305 68.14573341 207.55712195 68.125 204.96875 C68.10457642 203.6455072 68.10457642 203.6455072 68.08374023 202.29553223 C67.9807811 185.09739654 74.30782653 169.87578772 86.2265625 157.43359375 C96.47101482 148.23145489 108.53258872 142.26366398 122.2265625 140.43359375 C122.25368601 138.03768337 122.2734607 135.64208418 122.2890625 133.24609375 C122.29744141 132.57255859 122.30582031 131.89902344 122.31445312 131.20507812 C122.33271101 127.46221199 122.02215009 124.0811839 121.2265625 120.43359375 C120.5867041 120.68939209 119.9468457 120.94519043 119.28759766 121.20874023 C98.48809092 129.43218446 77.38265374 135.24418393 55.68505859 140.54394531 C54.94571579 140.7257132 54.20637299 140.90748108 53.44462585 141.09475708 C52.02159218 141.44421878 50.59779693 141.79059734 49.173172 142.1335144 C45.92687731 142.73518951 45.92687731 142.73518951 43.2265625 144.43359375 C42.93124055 146.01254279 42.66519241 147.59701602 42.4140625 149.18359375 C41.55502413 153.5728409 40.66836388 156.37421474 37.2265625 159.43359375 C32.42776454 161.46473374 27.93260091 161.74056786 22.79296875 161.734375 C21.59872536 161.74080269 21.59872536 161.74080269 20.38035583 161.74736023 C18.70369412 161.75307933 17.02700761 161.75362172 15.3503418 161.74926758 C12.80018364 161.74610753 10.25118693 161.7695963 7.70117188 161.79492188 C6.06510562 161.79719529 4.42903627 161.79789817 2.79296875 161.796875 C2.03859024 161.80608475 1.28421173 161.81529449 0.50697327 161.82478333 C-5.35042881 161.77417173 -10.28354701 160.87650517 -14.63671875 156.60546875 C-16.01841543 153.96552595 -16.50578451 151.62458231 -16.9609375 148.68359375 C-17.11949219 147.69875 -17.27804688 146.71390625 -17.44140625 145.69921875 C-17.60576172 144.57773438 -17.60576172 144.57773438 -17.7734375 143.43359375 C-18.9701709 143.14750244 -20.1669043 142.86141113 -21.39990234 142.56665039 C-43.91185315 137.16335597 -66.11702901 131.70847567 -87.7734375 123.43359375 C-89.16058446 122.9121674 -90.54803596 122.39155072 -91.93572998 121.87158203 C-92.654799 121.60209747 -93.37386803 121.33261292 -94.11472702 121.05496216 C-94.66210148 120.84991058 -95.20947594 120.64485901 -95.7734375 120.43359375 Z M-7.7734375 122.43359375 C-11.0098913 128.90650135 -8.87046186 140.468524 -7.7734375 147.43359375 C-7.1134375 148.75359375 -6.4534375 150.07359375 -5.7734375 151.43359375 C6.4365625 151.43359375 18.6465625 151.43359375 31.2265625 151.43359375 C35.17890126 143.52891622 34.75924576 133.17586602 34.2265625 124.43359375 C33.7315625 123.44359375 33.7315625 123.44359375 33.2265625 122.43359375 C19.6965625 122.43359375 6.1665625 122.43359375 -7.7734375 122.43359375 Z M92.10546875 165.39453125 C84.95505586 173.1544388 80.09374834 183.07254291 78.2265625 193.43359375 C80.8665625 194.09359375 83.5065625 194.75359375 86.2265625 195.43359375 C86.2265625 197.74359375 86.2265625 200.05359375 86.2265625 202.43359375 C83.5865625 203.09359375 80.9465625 203.75359375 78.2265625 204.43359375 C77.25303063 217.08950802 83.17355831 228.17250556 91.10546875 237.6875 C98.57704572 245.64208801 109.41919084 252.48557805 120.4765625 253.67578125 C122.56300581 253.71408251 122.56300581 253.71408251 125.2265625 253.43359375 C125.3709375 252.13421875 125.5153125 250.83484375 125.6640625 249.49609375 C126.1015625 245.55859375 126.1015625 245.55859375 127.2265625 244.43359375 C129.55953683 244.39266438 131.89361475 244.39117652 134.2265625 244.43359375 C134.7215625 248.88859375 134.7215625 248.88859375 135.2265625 253.43359375 C140.38520742 255.15314206 144.93248363 253.38688811 149.83984375 251.34765625 C163.70512199 244.40498436 174.3890919 232.81405342 180.4453125 218.56640625 C182.01947958 213.77102691 182.55438299 209.46017458 182.2265625 204.43359375 C181.37771484 204.23443359 181.37771484 204.23443359 180.51171875 204.03125 C179.77824219 203.85464844 179.04476562 203.67804688 178.2890625 203.49609375 C177.55816406 203.32207031 176.82726562 203.14804688 176.07421875 202.96875 C174.2265625 202.43359375 174.2265625 202.43359375 173.2265625 201.43359375 C173.18592418 199.7674226 173.1838415 198.0997128 173.2265625 196.43359375 C175.8665625 195.44359375 178.5065625 194.45359375 181.2265625 193.43359375 C180.7714198 181.37231231 173.45125616 172.67239495 165.2265625 164.43359375 C164.58847656 163.78390625 163.95039063 163.13421875 163.29296875 162.46484375 C155.56378628 155.13738594 145.89936183 150.23222018 135.2265625 150.43359375 C134.5665625 152.74359375 133.9065625 155.05359375 133.2265625 157.43359375 C130.9165625 157.43359375 128.6065625 157.43359375 126.2265625 157.43359375 C125.5665625 155.12359375 124.9065625 152.81359375 124.2265625 150.43359375 C112.31273824 150.43359375 100.68443914 157.52614224 92.10546875 165.39453125 Z " fill="#004076" transform="translate(169.7734375,21.56640625)"/>
<path d="M0 0 C8.17263841 8.69393839 13.97848541 18.86868278 16.875 30.4375 C17.06449219 31.18 17.25398438 31.9225 17.44921875 32.6875 C20.30534792 51.13442603 16.53695122 67.58052308 6.1328125 83.0234375 C-3.49210692 96.00310062 -18.15374546 104.91521336 -34.125 107.4375 C-51.90664478 109.02322549 -69.14531349 106.67989793 -83.26171875 94.88671875 C-97.23270917 82.70112426 -105.98771764 67.97464723 -107.58203125 49.26953125 C-108.08090319 30.55259517 -101.90933358 14.18409525 -89.125 0.4375 C-64.29999383 -23.43602509 -25.23327121 -23.33828246 0 0 Z M-82.24609375 8.3984375 C-89.39650664 16.15834505 -94.25781416 26.07644916 -96.125 36.4375 C-93.485 37.0975 -90.845 37.7575 -88.125 38.4375 C-88.125 40.7475 -88.125 43.0575 -88.125 45.4375 C-90.765 46.0975 -93.405 46.7575 -96.125 47.4375 C-97.09853187 60.09341427 -91.17800419 71.17641181 -83.24609375 80.69140625 C-75.77451678 88.64599426 -64.93237166 95.4894843 -53.875 96.6796875 C-51.78855669 96.71798876 -51.78855669 96.71798876 -49.125 96.4375 C-48.980625 95.138125 -48.83625 93.83875 -48.6875 92.5 C-48.25 88.5625 -48.25 88.5625 -47.125 87.4375 C-44.79202567 87.39657063 -42.45794775 87.39508277 -40.125 87.4375 C-39.63 91.8925 -39.63 91.8925 -39.125 96.4375 C-33.96635508 98.15704831 -29.41907887 96.39079436 -24.51171875 94.3515625 C-10.64644051 87.40889061 0.0375294 75.81795967 6.09375 61.5703125 C7.66791708 56.77493316 8.20282049 52.46408083 7.875 47.4375 C7.02615234 47.23833984 7.02615234 47.23833984 6.16015625 47.03515625 C5.42667969 46.85855469 4.69320312 46.68195313 3.9375 46.5 C3.20660156 46.32597656 2.47570312 46.15195313 1.72265625 45.97265625 C-0.125 45.4375 -0.125 45.4375 -1.125 44.4375 C-1.16563832 42.77132885 -1.167721 41.10361905 -1.125 39.4375 C1.515 38.4475 4.155 37.4575 6.875 36.4375 C6.4198573 24.37621856 -0.90030634 15.6763012 -9.125 7.4375 C-9.76308594 6.7878125 -10.40117187 6.138125 -11.05859375 5.46875 C-18.78777622 -1.85870781 -28.45220067 -6.76387357 -39.125 -6.5625 C-39.785 -4.2525 -40.445 -1.9425 -41.125 0.4375 C-43.435 0.4375 -45.745 0.4375 -48.125 0.4375 C-48.785 -1.8725 -49.445 -4.1825 -50.125 -6.5625 C-62.03882426 -6.5625 -73.66712336 0.53004849 -82.24609375 8.3984375 Z " fill="#FCFCFC" transform="translate(344.125,178.5625)"/>
<path d="M0 0 C1.00439117 -0.00524185 2.00878235 -0.0104837 3.04360962 -0.0158844 C5.15634238 -0.0222727 7.26911085 -0.02100929 9.38183594 -0.01245117 C12.58594155 -0.00394771 15.78825769 -0.03273835 18.9921875 -0.06445312 C21.05729114 -0.06606578 23.12239789 -0.06548637 25.1875 -0.0625 C26.60209 -0.07935097 26.60209 -0.07935097 28.04525757 -0.09654236 C36.31919909 -0.01135101 45.64954522 1.8627104 51.83984375 7.8046875 C58.73025422 15.8984936 67.2265625 30.3606216 67.2265625 41.43359375 C62.2765625 41.43359375 57.3265625 41.43359375 52.2265625 41.43359375 C51.4015625 39.14421875 50.5765625 36.85484375 49.7265625 34.49609375 C47.13976126 27.81364439 44.10324917 21.82626863 38.2265625 17.43359375 C32.62523675 14.99368785 28.14525028 13.98239386 22.0703125 14.03515625 C20.95045959 14.03085098 20.95045959 14.03085098 19.8079834 14.02645874 C18.24161004 14.0244323 16.67521055 14.02986187 15.10888672 14.04248047 C12.73216341 14.05855587 10.35714014 14.04258441 7.98046875 14.0234375 C6.44791297 14.02542019 4.91535824 14.02926439 3.3828125 14.03515625 C2.33401917 14.02604721 2.33401917 14.02604721 1.26403809 14.01675415 C-4.51895246 14.09785559 -10.00044477 15.30443232 -14.69140625 18.90625 C-18.53707793 23.72221423 -21.19337883 28.85111804 -23.7734375 34.43359375 C-26.66998922 40.33014547 -26.66998922 40.33014547 -27.7734375 41.43359375 C-29.95983203 41.50618321 -32.14844139 41.51733158 -34.3359375 41.49609375 C-36.13224609 41.48255859 -36.13224609 41.48255859 -37.96484375 41.46875 C-38.89167969 41.45714844 -39.81851563 41.44554687 -40.7734375 41.43359375 C-38.12431392 27.22465816 -32.96057568 14.78342864 -22.19140625 4.94140625 C-15.24574848 0.61018832 -8.01360697 -0.02483882 0 0 Z " fill="#FBFCFC" transform="translate(169.7734375,21.56640625)"/>
<path d="M0 0 C0.8380719 -0.01283524 1.6761438 -0.02567047 2.53961182 -0.03889465 C3.44274109 -0.04628159 4.34587036 -0.05366852 5.27636719 -0.0612793 C6.67674225 -0.07338692 6.67674225 -0.07338692 8.10540771 -0.08573914 C10.08246 -0.09957037 12.05953608 -0.11029682 14.03662109 -0.11816406 C17.04799146 -0.13535391 20.0582572 -0.17924591 23.06933594 -0.22338867 C24.99250497 -0.2335181 26.91568331 -0.24203342 28.83886719 -0.2487793 C29.73389954 -0.26628738 30.62893188 -0.28379547 31.55108643 -0.30183411 C37.4972525 -0.2813847 40.9456462 0.72568506 45.82324219 4.17700195 C48.86253977 7.92546897 49.48867561 11.40942817 49.82324219 16.17700195 C49.67113281 17.05485352 49.51902344 17.93270508 49.36230469 18.8371582 C48.93937719 21.4574699 48.70887281 23.85198519 48.61230469 26.48950195 C48.56976563 27.63805664 48.56976563 27.63805664 48.52636719 28.80981445 C48.47429172 30.38770119 48.43001763 31.96586475 48.39355469 33.54418945 C48.14517796 39.69151349 47.00801742 44.10426647 42.38574219 48.48950195 C37.68857452 51.58275871 33.08274735 51.3496533 27.58496094 51.38012695 C26.78596878 51.38582703 25.98697662 51.3915271 25.16377258 51.3973999 C23.47516191 51.40683066 21.78653299 51.41337623 20.09790039 51.41723633 C17.53010505 51.42692887 14.96311506 51.45796431 12.39550781 51.48950195 C10.75033024 51.49603413 9.10514698 51.50128376 7.45996094 51.50512695 C6.69930832 51.51747375 5.9386557 51.52982056 5.154953 51.5425415 C-0.01626503 51.52120405 -3.58073086 50.58961832 -8.17675781 48.17700195 C-13.30593442 42.91284701 -13.3448066 37.99633323 -13.67675781 30.92700195 C-13.88632272 26.55718559 -14.13896608 22.25758832 -14.77832031 17.92700195 C-15.30266157 12.9920254 -14.43367114 9.55300184 -12.17675781 5.17700195 C-8.42757501 1.42781915 -5.24213002 0.070104 0 0 Z M-3.17675781 11.17700195 C-6.41321161 17.64990956 -4.27378217 29.21193221 -3.17675781 36.17700195 C-2.51675781 37.49700195 -1.85675781 38.81700195 -1.17675781 40.17700195 C11.03324219 40.17700195 23.24324219 40.17700195 35.82324219 40.17700195 C39.77558095 32.27232442 39.35592544 21.91927422 38.82324219 13.17700195 C38.32824219 12.18700195 38.32824219 12.18700195 37.82324219 11.17700195 C24.29324219 11.17700195 10.76324219 11.17700195 -3.17675781 11.17700195 Z " fill="#FCFCFC" transform="translate(165.1767578125,132.822998046875)"/>
<path d="M0 0 C2.5625 0.375 2.5625 0.375 4.19067383 2.01855469 C5.91549902 4.98136172 5.99045 7.03535982 6.07421875 10.453125 C6.10966797 11.61328125 6.14511719 12.7734375 6.18164062 13.96875 C6.20419922 15.1753125 6.22675781 16.381875 6.25 17.625 C6.30124023 19.45804688 6.30124023 19.45804688 6.35351562 21.328125 C6.43597162 24.34365846 6.50513201 27.35890194 6.5625 30.375 C7.53082764 30.43252441 8.49915527 30.49004883 9.49682617 30.54931641 C19.1875 31.125 19.1875 31.125 22.5625 33.375 C22.875 36.375 22.875 36.375 22.5625 39.375 C19.99261319 41.94488681 18.97339947 41.63206775 15.40625 41.640625 C13.87291016 41.64449219 13.87291016 41.64449219 12.30859375 41.6484375 C11.23738281 41.64070313 10.16617187 41.63296875 9.0625 41.625 C7.45568359 41.63660156 7.45568359 41.63660156 5.81640625 41.6484375 C4.79417969 41.64585937 3.77195312 41.64328125 2.71875 41.640625 C1.77837891 41.63836914 0.83800781 41.63611328 -0.13085938 41.63378906 C-2.4375 41.375 -2.4375 41.375 -4.4375 39.375 C-6.04183767 31.35515465 -5.46035208 22.92985791 -5.125 14.8125 C-5.08955078 13.63880859 -5.05410156 12.46511719 -5.01757812 11.25585938 C-4.97439453 10.13888672 -4.93121094 9.02191406 -4.88671875 7.87109375 C-4.84893311 6.86232178 -4.81114746 5.8535498 -4.7722168 4.81420898 C-4.30669191 1.42175157 -3.37848507 0.51976693 0 0 Z " fill="#FDFDFD" transform="translate(299.4375,190.625)"/>
</svg>
