<?xml version="1.0" encoding="UTF-8"?>
<svg width="55px" height="54px" viewBox="0 0 55 54" version="1.1" xmlns="http://www.w3.org/2000/svg" xmlns:xlink="http://www.w3.org/1999/xlink">
    <!-- Generator: sketchtool 55.2 (78181) - https://sketchapp.com -->
    <title>B8BA06B2-6726-4181-A544-072D187B1043</title>
    <desc>Created with sketchtool.</desc>
    <g id="ui" stroke="none" stroke-width="1" fill="none" fill-rule="evenodd">
        <g id="Home" transform="translate(-365.000000, -3055.000000)">
            <g id="Group-9" transform="translate(343.000000, 3032.000000)">
                <g id="Icons/tecnología" transform="translate(14.492754, 15.942029)">
                    <circle id="Oval" fill="#004165" cx="34.782608" cy="43.47826" r="1.44927533"></circle>
                    <path d="M48.7264454,49.2753614 L15.2860409,49.2753614 C11.6462696,49.2753614 8.69565201,46.2682185 8.69565201,42.5587198 L8.69565201,15.4122936 C8.69565201,11.7027949 11.6462696,8.69565201 15.2860409,8.69565201 L54.2791752,8.69565201 C57.9189464,8.69565201 60.8695641,11.7027949 60.8695641,15.4122936 L60.8695641,42.5587198 C60.8695641,46.2682185 57.9189464,49.2753614 54.2791752,49.2753614 L53.1095796,49.2753614" id="Path" stroke="#FFFFFF" stroke-width="1.4" stroke-linecap="round" stroke-linejoin="round"></path>
                    <path d="M13.043478,37.6811587 L13.043478,15.9420287 C13.043478,14.3412034 14.3859525,13.043478 16.0419787,13.043478 L53.5232374,13.043478 C55.1792636,13.043478 56.5217381,14.3412034 56.5217381,15.9420287 L56.5217381,37.6811587" id="Shape" stroke="#FFFFFF" stroke-width="1.4"></path>
                    <rect id="Rectangle" stroke="#FFFFFF" stroke-width="1.4" x="19.5405794" y="55.7724627" width="30.4840574" height="4.39710134" rx="2.19855067"></rect>
                    <path d="M25.3623184,48.4997726 C24.2508299,53.6547959 23.6950856,56.2323076 23.6950856,56.2323076" id="Path-16" stroke="#FFFFFF" stroke-width="1.4"></path>
                    <path d="M45.1454928,48.4997726 C44.0340043,53.6547959 43.47826,56.2323076 43.47826,56.2323076" id="Path-16-Copy" stroke="#FFFFFF" stroke-width="1.4" transform="translate(44.311876, 52.366040) scale(-1, 1) translate(-44.311876, -52.366040) "></path>
                    <path d="M8.69565201,38.4057964 L61.5942017,38.4057964" id="Path-27" stroke="#FFFFFF" stroke-width="1.4"></path>
                    <g id="Group" transform="translate(34.782608, 26.086956) scale(-1, 1) rotate(180.000000) translate(-34.782608, -26.086956) translate(27.536231, 17.391304)">
                        <path d="M11.9100707,16.6666663 C13.1106897,16.6666663 14.0839837,15.6933723 14.0839837,14.4927533 C14.0839837,13.2921343 13.1106897,12.3188403 11.9100707,12.3188403 C10.7094517,12.3188403 9.73615766,13.2921343 9.73615766,14.4927533 C9.73615766,15.6933723 10.7094517,16.6666663 11.9100707,16.6666663 Z" id="Oval" fill="#004165"></path>
                        <path d="M2.173913,10.869565 C3.374532,10.869565 4.347826,9.89627101 4.347826,8.69565201 C4.347826,7.49503301 3.374532,6.52173901 2.173913,6.52173901 C0.973294004,6.52173901 0,7.49503301 0,8.69565201 C0,9.89627101 0.973294004,10.869565 2.173913,10.869565 Z" id="Oval" fill="#004165"></path>
                        <path d="M12.3188403,5.07246367 C13.5194593,5.07246367 14.4927533,4.09916967 14.4927533,2.89855067 C14.4927533,1.69793167 13.5194593,0.724637667 12.3188403,0.724637667 C11.1182213,0.724637667 10.1449273,1.69793167 10.1449273,2.89855067 C10.1449273,4.09916967 11.1182213,5.07246367 12.3188403,5.07246367 Z" id="Oval" fill="#004165"></path>
                        <path d="M0.287691139,14.4268686 L10.8584051,14.4268686" id="Path" stroke="#004165" stroke-width="1.4784" stroke-linecap="round" stroke-linejoin="round"></path>
                    </g>
                    <g id="Group" transform="translate(33.333333, 31.159420) scale(-1, 1) rotate(180.000000) translate(-33.333333, -31.159420) translate(27.536231, 28.985507)" stroke="#004165" stroke-linecap="round" stroke-linejoin="round" stroke-width="1.4784">
                        <path d="M0.287691139,1.38339081 L10.8584051,1.38339081" id="Path"></path>
                    </g>
                    <g id="Group" transform="translate(36.231883, 26.811594) scale(1, -1) rotate(180.000000) translate(-36.231883, -26.811594) translate(30.434782, 24.637681)" stroke="#004165" stroke-linecap="round" stroke-linejoin="round" stroke-width="1.4784">
                        <path d="M0.287691139,1.38339081 L10.8584051,1.38339081" id="Path"></path>
                    </g>
                </g>
            </g>
        </g>
    </g>
</svg>