<?xml version="1.0" encoding="UTF-8"?>
<svg width="46px" height="59px" viewBox="0 0 46 59" version="1.1" xmlns="http://www.w3.org/2000/svg" xmlns:xlink="http://www.w3.org/1999/xlink">
    <!-- Generator: sketchtool 55.2 (78181) - https://sketchapp.com -->
    <title>145AFAFF-A7FC-45EB-9F93-4755BA57D02F</title>
    <desc>Created with sketchtool.</desc>
    <g id="ui" stroke="none" stroke-width="1" fill="none" fill-rule="evenodd">
        <g id="Home" transform="translate(-692.000000, -3053.000000)">
            <g id="Group-12" transform="translate(665.000000, 3032.000000)">
                <g id="Group-10">
                    <g id="Icons/35-años-de-experiencia" transform="translate(14.492754, 15.942029)">
                        <g id="Group-2" transform="translate(13.043478, 4.347826)">
                            <g id="Group" stroke-linecap="round" stroke-linejoin="round" stroke-width="1.74636">
                                <path d="M8.92520908,25.8946152 L0.878376021,10.2248022 C0.387772947,9.26943771 0.739287351,8.09714899 1.67461987,7.56935573 L10.8230462,2.40704423 C11.7850277,1.86421336 13.0049192,2.20400209 13.54775,3.16598361 C13.5650117,3.19657404 13.5814646,3.2276139 13.5970914,3.25907088 L22.8297962,21.8445653" id="Path-6" stroke="#FFFFFF"></path>
                                <path d="M32.2108023,26.3439839 L22.8396091,10.6288304 C22.288187,9.70411534 22.5677413,8.50882325 23.4720778,7.92458027 L32.4848474,2.10191666 C33.4126394,1.5025204 34.65067,1.7687377 35.2500663,2.69652965 C35.2629462,2.71646623 35.2754703,2.73663051 35.2876324,2.75701291 L44.7478244,18.6112265" id="Path-6" stroke="#FFFFFF" transform="translate(33.299606, 13.660627) scale(-1, 1) translate(-33.299606, -13.660627) "></path>
                                <path d="M12.110885,55.2759294 C14.9081101,57.1576134 18.2549764,58.2521732 21.8513879,58.2521732 L21.8513879,58.2521732 C31.6650626,58.2521732 39.6206178,50.1020524 39.6206178,40.048369 C39.6206178,29.9946856 31.6650626,21.8445649 21.8513879,21.8445649 C12.0377131,21.8445649 4.08215791,29.9946856 4.08215791,40.048369 C4.08215791,43.2718569 4.9000051,46.2996547 6.3347209,48.9258685" id="Path" stroke="#004165"></path>
                                <path d="M12.4059591,2.42654576 L32.6086949,2.42654576" id="Path-31" stroke="#FFFFFF"></path>
                                <path d="M17.4090803,8.25879208 L28.0706187,8.25879208" id="Path-31" stroke="#FFFFFF"></path>
                            </g>
                            <text id="35" font-family="BrandonGrotesque-Black, Brandon Grotesque" font-size="13.86" font-weight="700" letter-spacing="-0.930000007" fill="#FFFFFF">
                                <tspan x="15.7706599" y="44.4869562">3</tspan>
                                <tspan x="22.0062799" y="44.4869562">5</tspan>
                            </text>
                        </g>
                        <path d="M46.3768107,24.6376807 C47.1772234,24.6376807 47.826086,23.988818 47.826086,23.1884054 C47.826086,22.3879927 47.1772234,21.73913 46.3768107,21.73913 C45.576398,21.73913 44.9275354,22.3879927 44.9275354,23.1884054 C44.9275354,23.988818 45.576398,24.6376807 46.3768107,24.6376807 Z" id="Oval" fill="#004165"></path>
                    </g>
                </g>
            </g>
        </g>
    </g>
</svg>