<?xml version="1.0" encoding="UTF-8"?>
<svg width="62px" height="56px" viewBox="0 0 62 56" version="1.1" xmlns="http://www.w3.org/2000/svg" xmlns:xlink="http://www.w3.org/1999/xlink">
    <!-- Generator: sketchtool 55.2 (78181) - https://sketchapp.com -->
    <title>5D012613-6769-4AAC-93D1-D50C152642FA</title>
    <desc>Created with sketchtool.</desc>
    <g id="ui" stroke="none" stroke-width="1" fill="none" fill-rule="evenodd">
        <g id="Home" transform="translate(-1009.000000, -3054.000000)">
            <g id="Group-3" transform="translate(984.000000, 3032.000000)">
                <g id="Group-8" transform="translate(21.739130, 17.391304)">
                    <g id="Icons/egresados-ganan-mas">
                        <g id="egresados" transform="translate(4.166667, 5.555555)">
                            <g id="Group-5">
                                <g id="Group-21" stroke="#FFFFFF" stroke-width="1.4">
                                    <polygon id="Stroke-1" points="9.67170758 11.2173793 34.6708059 11.2173793 34.6708059 0.121996992 9.67170758 0.121996992"></polygon>
                                    <path d="M11.1510872,0.121996992 L4.9894725,0.121996992" id="Stroke-3" stroke-linecap="round" stroke-linejoin="round"></path>
                                    <path d="M40.8323478,0.121996992 L34.6707331,0.121996992" id="Stroke-4" stroke-linecap="round" stroke-linejoin="round"></path>
                                    <path d="M39.1657735,0.121996992 L39.1657735,9.3166661" id="Stroke-5"></path>
                                    <path d="M40.6807851,10.6522402 C40.6807851,11.5032912 40.0023718,12.1933062 39.16587,12.1933062 C38.3288884,12.1933062 37.6504751,11.5032912 37.6504751,10.6522402 C37.6504751,9.80118922 38.3288884,9.11117426 39.16587,9.11117426 C40.0023718,9.11117426 40.6807851,9.80118922 40.6807851,10.6522402 Z" id="Stroke-6"></path>
                                    <path d="M11.0492609,11.2173063 L11.0492609,18.1464914 L11.0523795,18.1464914 C11.0497407,23.112013 14.2844384,27.6678687 19.2192474,29.0498506 C25.1397709,30.7082777 31.2610836,27.1708529 32.8913865,21.1490814 C33.1629438,20.1462661 33.2896065,19.138327 33.2903262,18.1464914 L33.2932049,18.1464914 L33.2932049,11.2173063" id="Stroke-7"></path>
                                    <path d="M10.164181,11.2173063 L10.164181,14.1066831" id="Stroke-8"></path>
                                    <path d="M34.0647923,11.2173063 L34.0647923,14.1066831" id="Stroke-9"></path>
                                    <path d="M33.476488,13.8754985 C33.476488,13.8754985 37.0264785,13.8754985 36.7473783,17.6125105 C36.4685724,21.3495224 33.0593097,20.9054534 33.0593097,20.9054534" id="Stroke-11"></path>
                                    <path d="M7.55056395,13.8754985 C7.55056395,13.8754985 11.1005545,13.8754985 10.8214542,17.6125105 C10.5426484,21.3495224 7.1333856,20.9054534 7.1333856,20.9054534" id="Stroke-11" transform="translate(8.985237, 17.398663) scale(-1, -1) translate(-8.985237, -17.398663) "></path>
                                    <path d="M18.1562875,28.6924245 L18.1562875,32.2520529 L15.8077493,34.9489184 C15.8077493,34.9489184 1.86586115,36.2198025 0.268477357,44.8066721" id="Path" stroke-linecap="round" stroke-linejoin="round"></path>
                                    <path d="M26.3139927,28.9389069 L26.3139927,33.0997364 L28.6625309,35.796358 C28.6625309,35.796358 44.2160431,36.412638 43.8372543,46.8145897 L43.8372543,52.8847118" id="Stroke-13" stroke-linecap="round" stroke-linejoin="round"></path>
                                    <polyline id="Stroke-14" stroke-linecap="round" stroke-linejoin="round" points="0.119897801 51.6347918 0.119897801 54.1346261 43.837254 54.1346261 43.837254 51.6347918"></polyline>
                                    <polyline id="Stroke-15" points="12.2658235 35.5652213 15.580405 46.2753373 21.9785524 53.6720149 28.3834168 46.814564 31.7229471 36.3040351"></polyline>
                                    <path d="M15.807726,34.9488192 L18.1562643,41.0101177 C18.1562643,41.0101177 19.3684363,43.2702339 21.640929,43.2189952 C23.9136615,43.1677565 24.9773407,43.0135523 26.3140164,40.753436 C27.650932,38.4930758 28.6625547,35.7964543 28.6625547,35.7964543" id="Stroke-17"></path>
                                    <path d="M18.4959749,49.6459929 L19.9581139,42.8041574" id="Stroke-18"></path>
                                    <path d="M25.8824762,49.6459929 L24.4203373,42.8041574" id="Stroke-19"></path>
                                </g>
                                <g id="Group" transform="translate(38.888887, 16.810344)">
                                    <ellipse id="Oval" stroke="#004165" stroke-width="1.4" cx="10.5609585" cy="10.7124742" rx="10.5609585" ry="10.7124742"></ellipse>
                                    <g id="soles" transform="translate(6.600599, 4.017178)">
                                        <g id="Group-4" transform="translate(0.499394, -0.000000)">
                                            <path d="M0.166335088,10.5359382 C0.00791992638,10.4073879 -0.0316832698,10.2386681 0.0475243107,10.0297738 C0.0792073429,9.98156742 0.138612137,9.87712184 0.225740476,9.71643392 C0.312868815,9.55574601 0.36435297,9.4593347 0.380194486,9.42719712 C0.522768131,9.20223403 0.73662539,9.1781312 1.02177268,9.35488791 C1.70295787,9.91729563 2.44749796,10.1984953 3.25541528,10.1984953 C3.73066077,10.1984953 4.10689113,10.0900326 4.38411766,9.87310386 C4.6613442,9.65617517 4.79995538,9.37899267 4.79995538,9.04154804 C4.79995538,8.65589704 4.64946324,8.33854316 4.34847443,8.08947688 C4.04748562,7.84041061 3.50096152,7.51502246 2.70888571,7.11330266 C2.18611568,6.85620199 1.75444084,6.61517373 1.41384824,6.39021064 C1.07325565,6.16524756 0.752469758,5.8398594 0.451480952,5.41403642 C0.150492146,4.98821344 -2.96059462e-14,4.51820832 -2.96059462e-14,4.00400699 C-2.96059462e-14,3.3933929 0.253460456,2.82295934 0.760388971,2.29268921 C1.26731749,1.76241908 2.01977822,1.49728799 3.01779373,1.49728799 C4.06333379,1.49728799 4.94252475,1.74635053 5.65539298,2.24448308 C5.92469875,2.42123979 5.97222258,2.67030232 5.79796591,2.99167816 L5.60786866,3.37732724 C5.43361199,3.68263428 5.20391345,3.75494276 4.91876616,3.59425484 C4.23758097,3.20860384 3.60392983,3.01578123 3.01779373,3.01578123 C2.54254825,3.01578123 2.19800044,3.11219253 1.98413997,3.30501803 C1.7702795,3.49784354 1.66335088,3.72280325 1.66335088,3.97990392 C1.66335088,4.23700459 1.75839855,4.46999857 1.94849674,4.67889287 C2.13859493,4.88778716 2.32076964,5.04043839 2.49502631,5.13685115 C2.66928299,5.2332639 2.97818792,5.39394941 3.42175037,5.61891249 C3.9445204,5.87601316 4.348473,6.08490432 4.63362029,6.24559224 C4.91876758,6.40628016 5.23163284,6.61918846 5.57222543,6.88432352 C5.91281803,7.14945859 6.15835784,7.44672678 6.30885225,7.77613701 C6.45934665,8.10554724 6.53459272,8.47914105 6.53459272,8.89692964 C6.53459272,9.62002527 6.22568779,10.254733 5.60786866,10.8010719 C4.99004954,11.3474109 4.20590625,11.6205762 3.25541528,11.6205762 C2.11482612,11.6205762 1.08514302,11.2590338 0.166335088,10.5359382 Z" id="s" fill="#FFFFFF" fill-rule="nonzero"></path>
                                            <path d="M3.26729644,1.60586033 L3.26729644,-4.62592909e-15" id="Path-3" stroke="#FFFFFF" stroke-width="1.4" stroke-linecap="round" stroke-linejoin="round"></path>
                                            <path d="M3.26729644,12.476563 L3.26729644,10.8707026" id="Path-3-Copy" stroke="#FFFFFF" stroke-width="1.4" stroke-linecap="round" stroke-linejoin="round"></path>
                                        </g>
                                    </g>
                                </g>
                            </g>
                        </g>
                        <path d="M33.3333321,13.8888884 C34.1003942,13.8888884 34.7222209,13.2670616 34.7222209,12.4999995 C34.7222209,11.7329374 34.1003942,11.1111107 33.3333321,11.1111107 C32.5662699,11.1111107 31.9444432,11.7329374 31.9444432,12.4999995 C31.9444432,13.2670616 32.5662699,13.8888884 33.3333321,13.8888884 Z" id="Oval" fill="#004165"></path>
                    </g>
                </g>
            </g>
        </g>
    </g>
</svg>